<?xml version="1.0" standalone="no"?>
<!DOCTYPE svg PUBLIC "-//W3C//DTD SVG 20010904//EN"
 "http://www.w3.org/TR/2001/REC-SVG-20010904/DTD/svg10.dtd">
<svg version="1.0" xmlns="http://www.w3.org/2000/svg"
 width="300.000000pt" height="299.000000pt" viewBox="0 0 300.000000 299.000000"
 preserveAspectRatio="xMidYMid meet">
<metadata>
Created by potrace 1.10, written by Peter Selinger 2001-2011
</metadata>
<g transform="translate(0.000000,299.000000) scale(0.100000,-0.100000)"
fill="#000000" stroke="none">
<path d="M1420 2940 c-182 -26 -518 -149 -663 -243 -29 -19 -77 -50 -109 -70
-71 -45 -185 -152 -252 -237 -146 -184 -260 -461 -297 -719 -42 -295 50 -681
233 -976 99 -160 274 -341 418 -433 30 -19 68 -44 83 -54 49 -34 180 -95 257
-122 73 -24 119 -34 265 -57 88 -14 267 -8 273 9 2 7 22 12 49 12 58 0 227 35
323 66 41 13 129 51 195 84 222 110 370 243 522 470 98 146 164 302 209 495
27 113 29 133 28 335 0 227 -10 298 -65 464 -32 96 -134 301 -197 395 -138
208 -403 414 -643 502 -208 76 -440 105 -629 79z m380 -44 c30 -8 93 -24 140
-36 47 -12 99 -27 115 -35 17 -7 48 -20 69 -29 21 -9 95 -51 163 -94 133 -82
260 -195 344 -307 42 -56 139 -209 139 -219 0 -3 17 -42 39 -88 41 -88 67
-168 102 -312 30 -126 30 -385 -1 -539 -27 -137 -69 -269 -122 -377 -40 -83
-103 -190 -118 -200 -4 -3 -23 -29 -42 -58 -73 -109 -218 -243 -341 -316 -217
-128 -413 -190 -702 -222 l-70 -8 50 -7 c43 -5 39 -6 -35 -7 -118 -2 -393 58
-444 96 -6 5 -33 15 -61 22 -57 15 -165 68 -165 82 0 5 -5 6 -10 3 -6 -3 -10
-1 -10 4 0 19 -39 51 -55 45 -17 -7 -56 16 -96 55 -15 14 -51 46 -80 71 -29
25 -63 55 -74 68 -11 12 -35 38 -53 57 -42 42 -102 126 -102 141 0 6 -13 29
-28 50 -44 60 -85 134 -79 141 3 3 0 11 -7 19 -11 11 -68 175 -107 309 -38
131 -46 338 -19 510 12 76 65 256 95 320 82 179 114 235 209 358 24 31 148
157 155 157 3 0 18 10 31 23 14 12 50 42 80 66 37 29 24 13 -40 -49 -52 -51
-86 -86 -75 -79 10 8 33 27 50 43 16 15 46 40 64 55 19 14 45 36 58 47 22 20
113 68 243 128 47 22 150 59 200 72 8 2 49 13 90 24 41 11 111 23 155 26 44 4
82 9 85 11 9 9 204 -7 260 -21z"/>
<path d="M1553 2853 c-10 -4 -13 -87 -13 -368 0 -199 3 -377 6 -394 l7 -31 73
0 74 0 2 183 c3 328 -4 601 -16 609 -12 9 -114 9 -133 1z m127 -393 l0 -380
-44 0 c-24 0 -51 -3 -60 -6 -14 -6 -16 32 -16 380 l0 386 60 0 60 0 0 -380z"/>
<path d="M1355 2825 c-75 -15 -235 -69 -306 -105 -183 -93 -372 -259 -497
-437 -38 -55 -131 -236 -152 -299 -51 -146 -85 -295 -70 -307 3 -2 34 2 70 7
l65 11 -61 3 -61 3 18 82 c102 472 427 844 859 985 74 24 190 52 217 52 2 0 3
-34 3 -76 0 -43 -4 -73 -9 -69 -14 8 -170 -31 -248 -62 -201 -80 -381 -226
-501 -405 -24 -37 -48 -65 -53 -62 -10 6 -43 -53 -45 -81 -1 -11 -21 -71 -43
-134 -23 -62 -46 -134 -52 -160 -5 -25 -12 -55 -15 -66 -5 -20 -5 -20 10 -1 9
11 16 30 16 43 0 36 59 211 97 288 99 198 255 374 419 471 127 76 241 122 352
143 l87 16 3 55 c4 69 -5 120 -21 119 -7 -1 -43 -7 -82 -14z"/>
<path d="M1795 2820 c-3 -6 4 -10 17 -10 40 0 219 -60 298 -100 299 -150 529
-404 650 -715 29 -75 80 -261 80 -291 0 -10 -16 -14 -60 -14 -54 0 -60 2 -60
21 0 47 -55 220 -100 315 -82 175 -203 331 -332 430 -142 110 -319 194 -445
211 l-43 6 0 64 c0 47 -3 64 -12 60 -18 -5 -14 -113 4 -131 8 -7 45 -19 83
-25 135 -24 373 -162 510 -296 68 -67 151 -187 196 -285 17 -36 38 -81 48
-100 19 -37 53 -143 71 -223 6 -27 16 -54 23 -60 28 -27 137 -10 137 21 0 26
-38 179 -61 247 -35 103 -124 276 -189 367 -124 173 -342 353 -528 433 -74 32
-240 85 -268 85 -7 0 -16 -4 -19 -10z"/>
<path d="M1410 2594 c-19 -7 -43 -13 -54 -13 -22 -1 -209 -82 -203 -88 3 -2
22 3 43 11 70 26 173 56 193 56 23 0 37 -18 25 -30 -5 -4 -31 -11 -59 -15 -96
-12 -354 -153 -430 -235 -16 -18 -50 -41 -74 -51 -51 -22 -51 -33 0 -19 18 6
49 10 66 10 18 0 33 4 33 9 0 13 111 118 168 159 88 63 190 106 269 114 46 4
43 -16 -4 -24 -83 -14 -234 -104 -340 -204 -32 -30 -61 -54 -65 -54 -21 0 -3
-43 36 -86 43 -49 51 -70 62 -170 5 -42 2 -59 -20 -102 -14 -28 -35 -56 -45
-62 -11 -5 -27 -17 -35 -26 -12 -11 -16 -12 -16 -2 0 9 -2 10 -8 2 -4 -7 -29
-24 -56 -38 -64 -34 -27 -35 49 -2 65 29 108 72 141 141 27 57 30 105 10 163
-13 36 -13 40 0 35 8 -3 31 10 54 30 39 36 120 83 120 71 0 -4 7 -1 15 6 12
10 15 10 16 -1 0 -8 4 -4 9 9 10 24 59 32 61 10 0 -7 5 -3 11 9 12 26 55 36
62 16 4 -8 6 -38 6 -68 0 -48 -2 -53 -24 -57 -18 -4 -27 1 -34 16 -9 18 -11
16 -11 -16 -1 -34 -6 -39 -61 -73 -84 -51 -118 -82 -135 -121 -8 -19 -19 -34
-24 -34 -6 0 -11 -8 -11 -18 0 -42 -43 -144 -64 -152 -15 -6 -2 -9 44 -9 l66
-1 11 64 c24 138 124 278 226 314 31 11 46 21 42 30 -3 8 -5 49 -5 93 0 72 -2
79 -20 79 -30 0 -118 -36 -161 -66 -49 -33 -58 -27 -23 15 27 32 149 101 179
101 15 0 16 16 9 143 -3 78 -7 142 -8 143 0 0 -17 -5 -36 -12z m32 -174 c1
-27 2 -57 2 -67 1 -11 -15 -22 -50 -33 -79 -27 -129 -61 -278 -192 l-42 -37
-11 30 c-6 16 -25 37 -42 46 -17 10 -31 21 -31 24 0 10 106 106 166 149 51 38
178 107 224 121 54 16 60 13 62 -41z m-219 -532 c-5 -7 -18 -44 -28 -83 -20
-79 -29 -95 -46 -78 -14 14 23 115 54 151 22 23 36 31 20 10z"/>
<path d="M1803 2569 c4 -13 7 -32 7 -41 0 -13 8 -18 28 -18 l27 1 -25 14 c-17
9 -20 14 -9 15 27 0 181 -82 259 -138 41 -30 110 -90 153 -134 50 -50 85 -78
100 -78 12 0 46 -11 74 -25 l53 -24 -29 58 c-39 76 -164 194 -262 247 -97 51
-221 103 -289 120 -30 8 -64 17 -74 20 -16 5 -18 2 -13 -17z m362 -150 c28
-13 52 -27 55 -30 3 -3 20 -14 38 -23 17 -9 32 -22 32 -28 0 -6 24 -34 53 -62
l52 -51 -35 -3 c-24 -3 -37 2 -46 15 -33 49 -93 113 -124 132 -42 25 -124 97
-95 83 11 -6 43 -21 70 -33z"/>
<path d="M1098 2476 c-95 -50 -144 -87 -202 -155 -23 -26 -15 -22 27 16 32 29
95 75 140 103 76 47 96 68 35 36z"/>
<path d="M1791 2471 c-16 -10 -27 -119 -14 -137 4 -6 46 -31 93 -54 122 -61
243 -152 271 -202 16 -29 4 -21 -63 38 -35 31 -82 70 -106 86 -42 29 -144 78
-162 78 -6 0 -10 -25 -10 -55 0 -30 5 -55 10 -55 6 0 10 5 10 10 0 19 82 -35
151 -99 61 -56 69 -68 69 -100 1 -79 26 -160 71 -226 l44 -65 75 0 c99 0 146
12 220 56 74 43 94 40 88 -16 -4 -45 4 -50 85 -50 57 0 59 8 22 106 -14 37
-27 78 -30 93 -5 26 -32 54 -45 46 -4 -2 -13 -25 -20 -50 -14 -50 -63 -101
-129 -135 -67 -34 -124 -22 -195 40 -105 93 -111 249 -12 316 48 33 55 65 25
109 -13 19 -37 45 -52 57 -16 13 -49 42 -74 65 -47 43 -223 137 -278 147 -16
3 -36 2 -44 -3z m148 -63 c110 -55 136 -73 219 -153 l94 -90 -43 -45 -44 -45
-80 80 c-63 62 -100 89 -165 122 -47 23 -93 44 -102 47 -15 4 -18 17 -18 76 0
38 3 70 7 70 4 0 64 -28 132 -62z m-9 -209 c32 -17 88 -58 124 -92 l65 -62 0
-73 c0 -63 4 -81 32 -133 18 -33 45 -71 61 -84 38 -32 36 -47 -4 -40 -43 8
-104 67 -112 108 -2 7 -8 25 -14 40 -7 16 -15 54 -18 85 -4 31 -12 68 -19 82
-19 36 -81 96 -147 141 -92 63 -70 82 32 28z m686 -386 c9 -20 18 -52 21 -70
6 -33 5 -33 -28 -27 -39 8 -41 9 -56 45 -9 21 -7 31 9 57 11 18 24 32 29 32 6
0 17 -17 25 -37z"/>
<path d="M813 2095 c-56 -39 -75 -108 -51 -187 30 -100 183 -117 230 -25 40
77 33 130 -22 188 -33 35 -42 39 -86 39 -28 0 -59 -7 -71 -15z m134 -22 c50
-33 68 -125 34 -177 -55 -83 -162 -73 -196 19 -47 121 59 224 162 158z"/>
<path d="M1770 2071 c0 -45 9 -59 56 -92 98 -67 168 -169 177 -257 2 -23 8
-46 12 -50 18 -16 -8 108 -34 163 -33 72 -77 125 -140 167 -54 37 -60 45 -54
68 3 10 0 21 -6 24 -7 5 -11 -4 -11 -23z"/>
<path d="M2301 2082 c-41 -20 -63 -62 -63 -123 1 -89 47 -142 122 -141 89 1
138 107 96 207 -25 59 -96 86 -155 57z m112 -30 c23 -20 47 -72 47 -103 0 -36
-31 -89 -62 -105 -83 -43 -171 60 -138 161 23 68 102 93 153 47z"/>
<path d="M286 1999 c-10 -27 -16 -52 -14 -54 2 -3 12 18 22 46 10 27 16 52 14
54 -2 3 -12 -18 -22 -46z"/>
<path d="M1501 1978 c-54 -9 -91 -32 -131 -83 -72 -91 -74 -98 -78 -339 -2
-120 -1 -243 3 -273 9 -74 73 -169 135 -201 42 -22 53 -23 170 -18 142 5 178
15 237 62 47 39 98 132 108 198 9 60 -41 226 -68 226 -6 0 -19 7 -29 17 -10 9
-18 11 -18 5 0 -6 9 -16 19 -22 28 -15 72 -116 78 -181 7 -75 -31 -163 -95
-220 -53 -46 -83 -55 -217 -64 -130 -9 -170 2 -223 59 -78 84 -77 81 -77 361
l0 250 33 60 c48 88 84 125 128 136 52 12 211 11 253 -1 129 -37 217 -201 187
-350 -6 -29 -5 -32 4 -17 11 18 12 18 25 0 7 -10 11 -21 9 -25 -3 -5 -2 -8 3
-8 4 0 22 -22 38 -49 17 -27 37 -54 46 -59 17 -11 298 -20 314 -10 6 3 48 4
95 3 288 -7 404 -5 412 7 4 7 8 41 8 74 0 56 -2 62 -22 68 -13 3 -202 6 -420
6 -233 0 -407 4 -422 10 -31 11 -36 -4 -7 -20 13 -6 168 -10 434 -10 l414 0 7
-50 c4 -28 4 -55 1 -60 -8 -13 -805 -13 -805 -1 0 6 -23 41 -52 78 -48 63 -52
73 -59 140 -12 122 -77 231 -162 272 -50 24 -207 41 -276 29z"/>
<path d="M632 1930 c-35 -15 -63 -99 -66 -203 -1 -49 21 -49 29 1 3 20 8 53
11 72 7 43 40 120 51 120 5 0 18 -19 30 -43 12 -24 39 -64 61 -90 34 -39 39
-51 33 -74 -7 -28 -8 -28 -97 -30 -115 -2 -112 -1 -90 -18 13 -10 44 -15 94
-15 68 0 77 3 107 29 32 27 32 29 19 66 -7 20 -23 49 -37 64 -13 14 -34 44
-47 66 -38 63 -54 72 -98 55z"/>
<path d="M252 1893 c-37 -124 -60 -402 -43 -513 9 -60 10 -57 5 40 -5 109 13
305 41 434 16 77 15 98 -3 39z"/>
<path d="M1983 1913 c-8 -3 -2 -24 17 -64 16 -34 31 -63 34 -66 9 -9 -4 49
-16 70 -6 12 -14 31 -17 42 -3 12 -11 20 -18 18z"/>
<path d="M1504 1823 l-62 -4 -7 -96 c-4 -52 -5 -190 -4 -305 l4 -211 130 5
c149 6 194 20 225 70 31 52 24 114 -20 158 -17 17 -33 20 -120 20 l-100 0 0
65 0 65 108 0 108 0 17 29 c35 60 11 158 -47 188 -32 17 -125 23 -232 16z
m221 -43 c20 -12 37 -32 40 -46 3 -13 7 -35 10 -49 11 -52 -5 -62 -115 -68
-56 -3 -107 -11 -115 -17 -11 -9 -15 -33 -15 -81 0 -67 1 -70 28 -80 15 -6 60
-9 100 -6 61 4 76 2 98 -15 14 -11 23 -25 21 -32 -2 -6 -1 -21 4 -32 11 -32
-23 -80 -74 -104 -37 -18 -60 -20 -148 -18 l-104 3 -3 250 c-2 138 0 264 3
282 l6 32 92 3 c124 4 131 3 172 -22z"/>
<path d="M1600 1721 c0 -5 20 -14 44 -20 54 -13 56 -13 56 -1 0 5 -17 14 -37
19 -46 13 -63 14 -63 2z"/>
<path d="M1650 1340 c6 -11 20 -20 30 -20 13 0 20 7 20 20 0 16 -7 20 -30 20
-28 0 -30 -2 -20 -20z"/>
<path d="M872 1690 c24 -15 96 -21 138 -10 33 7 32 8 -20 9 -30 1 -73 4 -95 7
-31 4 -36 3 -23 -6z"/>
<path d="M1833 1639 c10 -6 24 -8 32 -5 8 3 16 0 19 -7 2 -7 5 -4 5 6 1 13 -7
17 -36 17 -32 -1 -35 -2 -20 -11z"/>
<path d="M316 1575 c-3 -11 -6 -49 -6 -85 l0 -65 402 3 c221 1 424 6 452 11
32 6 -112 9 -391 10 l-443 1 0 67 0 66 227 -6 c124 -4 317 -7 427 -7 116 0
195 -4 187 -9 -17 -11 -6 -87 15 -95 11 -4 14 6 12 54 l-3 59 -40 6 c-22 3
-219 6 -437 8 -390 2 -397 2 -402 -18z"/>
<path d="M470 1344 c0 -46 54 -234 91 -313 21 -46 36 -88 32 -94 -4 -6 -1 -7
7 -2 10 6 12 4 7 -9 -4 -11 -3 -15 4 -10 7 4 9 0 5 -14 -6 -18 8 -58 25 -72 3
-3 14 -20 23 -37 9 -18 22 -33 29 -33 7 0 8 3 2 8 -14 10 -37 53 -32 59 3 2
28 -28 57 -66 47 -63 70 -84 70 -65 0 3 -27 39 -59 80 -107 132 -187 304 -227
484 -18 82 -33 120 -34 84z"/>
<path d="M2044 1351 c-2 -2 -4 -10 -4 -18 0 -10 21 -13 83 -13 81 -1 82 -1 52
-17 -81 -42 -130 -132 -138 -251 -5 -67 -8 -76 -44 -116 -21 -24 -74 -67 -117
-97 -80 -54 -102 -79 -71 -79 25 0 89 37 173 98 39 30 72 54 73 55 0 1 2 45 5
97 6 103 20 154 61 206 31 42 49 45 29 5 -22 -41 -33 -129 -24 -175 8 -39 1
-50 -56 -88 -6 -4 -8 -9 -5 -13 3 -3 27 6 52 21 26 14 47 22 47 17 0 -8 -102
-107 -152 -148 -64 -53 -142 -95 -186 -101 -12 -1 -32 -13 -43 -26 -16 -19
-19 -32 -14 -73 6 -61 30 -131 39 -117 3 6 30 18 59 28 133 43 344 170 344
206 0 15 53 101 66 106 18 9 3 34 -37 61 -113 78 -123 253 -20 362 14 15 51
34 83 44 55 16 61 17 110 0 28 -9 65 -28 82 -43 108 -91 87 -310 -37 -390 -27
-17 -69 -34 -94 -38 -43 -6 -80 -28 -80 -46 0 -4 7 -8 15 -8 20 0 19 -4 -10
-50 -49 -77 -150 -153 -305 -227 -52 -24 -111 -53 -131 -64 -44 -23 -63 -24
-55 -4 6 18 -2 45 -15 45 -15 0 -10 -42 6 -60 15 -16 23 -15 122 21 197 72
304 138 438 273 109 110 168 184 209 262 34 65 78 189 97 274 6 30 16 61 21
67 8 10 -59 13 -307 15 -174 2 -319 1 -321 -1z m496 -44 c0 -5 8 -3 18 6 17
15 67 13 77 -3 8 -14 -28 -120 -41 -120 -7 0 -18 18 -24 40 -6 23 -17 40 -25
40 -13 0 -45 36 -45 51 0 4 9 5 20 2 11 -3 20 -10 20 -16z m-308 -406 l37 -18
-71 -77 c-100 -109 -200 -174 -340 -222 l-68 -23 0 69 0 68 38 12 c103 34 217
114 296 211 l40 50 15 -26 c9 -14 33 -34 53 -44z m137 -110 c-44 -51 -59 -52
-54 -3 2 20 4 37 4 38 1 0 20 1 42 2 l41 2 -33 -39z"/>
<path d="M2137 828 c-16 -22 -27 -42 -24 -44 8 -8 66 62 59 72 -4 7 -18 -4
-35 -28z"/>
<path d="M2718 1349 c-11 -6 -18 -22 -18 -38 0 -55 -53 -238 -96 -330 -50
-107 -133 -235 -196 -302 -125 -134 -326 -259 -498 -309 -122 -36 -125 -38
-128 -98 -4 -75 7 -91 60 -85 70 9 227 62 320 109 222 111 420 313 547 555 80
153 141 352 141 461 l0 43 -57 3 c-32 1 -66 -3 -75 -9z m117 -36 c-31 -197
-63 -302 -137 -446 -120 -234 -309 -431 -528 -550 -73 -40 -251 -102 -322
-112 l-48 -7 0 60 0 61 43 11 c364 94 639 328 787 670 38 88 74 210 86 293 l6
47 59 0 c58 0 58 0 54 -27z"/>
<path d="M415 1343 c-80 -7 -85 -10 -79 -46 61 -365 204 -622 474 -850 135
-114 187 -146 355 -216 52 -22 158 -46 235 -54 38 -4 41 -3 20 5 -53 22 -67
27 -145 48 -213 57 -445 211 -612 407 -25 29 -49 51 -53 48 -4 -3 -7 3 -6 12
0 10 -4 18 -11 18 -7 0 -18 7 -25 15 -11 12 -11 12 5 1 26 -20 21 -8 -24 61
-77 119 -146 275 -173 395 -14 61 -26 118 -26 125 0 9 16 14 49 15 40 2 50 -1
54 -15 3 -10 5 -6 6 11 0 15 0 26 -1 25 -2 -1 -21 -3 -43 -5z"/>
<path d="M570 1338 c0 -24 49 -213 64 -248 15 -37 19 -33 30 27 16 92 136 203
220 203 120 -2 210 -82 235 -211 8 -40 9 -41 10 -12 3 86 -54 187 -123 218
-30 15 -30 15 31 12 35 -2 65 -6 68 -9 4 -3 13 -34 21 -69 18 -78 67 -170 116
-219 38 -39 98 -66 123 -56 18 7 81 -19 87 -36 6 -18 -6 -145 -15 -154 -8 -8
-57 41 -58 59 0 7 -5 1 -10 -12 -6 -15 -15 -21 -24 -17 -31 12 -13 -6 20 -20
32 -13 74 -59 63 -69 -8 -8 -91 27 -148 63 -51 33 -146 122 -129 122 4 0 10
-4 13 -9 3 -5 23 -19 43 -31 44 -25 31 -11 -50 54 -32 25 -63 43 -69 40 -8 -5
-9 0 -4 17 5 13 10 51 13 85 7 81 -25 148 -93 193 -56 36 -81 41 -42 7 15 -13
31 -25 35 -27 5 -2 28 -31 51 -63 46 -64 54 -114 27 -150 -8 -11 -15 -30 -15
-42 0 -13 -6 -29 -13 -36 -7 -7 -29 -32 -49 -56 l-36 -43 66 -68 c37 -36 93
-83 124 -104 75 -49 194 -105 238 -112 24 -4 13 3 -35 22 -38 16 -103 48 -144
72 -74 44 -221 173 -221 196 0 6 11 17 24 23 13 6 32 22 43 35 l18 25 76 -73
c75 -71 215 -155 260 -155 24 0 35 -26 33 -75 -1 -22 2 -47 7 -55 4 -8 8 55 8
145 1 88 5 178 11 200 5 22 6 43 2 46 -4 4 -29 15 -57 25 -99 36 -200 177
-212 297 l-6 57 -313 0 c-245 0 -314 -3 -314 -12z m210 -17 c2 -1 -17 -20 -42
-43 -26 -24 -56 -59 -66 -78 -24 -45 -38 -40 -35 12 2 35 0 38 -11 23 -16 -22
-23 -12 -27 40 l-4 40 50 6 c41 4 113 5 135 0z m404 -51 c4 -27 11 -52 16 -55
6 -3 10 -14 10 -25 0 -27 86 -151 127 -182 36 -28 30 -38 -10 -16 -36 19 -102
90 -134 144 -42 69 -71 173 -53 184 24 15 38 -1 44 -50z"/>
<path d="M2001 1262 c-41 -115 -69 -153 -163 -223 -68 -51 -78 -71 -76 -144 2
-69 7 -95 19 -95 5 0 9 38 9 85 l0 84 53 40 c88 64 146 145 168 234 14 58 8
71 -10 19z"/>
<path d="M2277 1207 c-21 -19 -37 -42 -37 -51 0 -9 -5 -25 -12 -35 -16 -26 12
-98 53 -137 24 -23 39 -29 76 -29 39 0 49 5 73 33 53 64 58 127 14 201 -21 35
-33 42 -90 48 -36 4 -45 1 -77 -30z m138 -7 c8 -6 22 -32 31 -56 14 -37 15
-51 5 -83 -23 -79 -89 -112 -147 -75 -71 47 -71 169 -2 219 25 18 89 15 113
-5z"/>
<path d="M840 1213 c-45 -17 -90 -91 -90 -149 0 -70 66 -144 129 -144 36 0 92
31 111 62 44 73 34 155 -26 208 -34 29 -82 38 -124 23z m112 -33 c89 -69 45
-235 -62 -235 -107 0 -158 141 -81 224 24 26 37 31 74 31 29 0 53 -7 69 -20z"/>
<path d="M246 1160 c4 -25 10 -54 15 -65 10 -24 0 48 -12 85 -6 16 -7 10 -3
-20z"/>
<path d="M281 1038 c-3 -31 102 -245 172 -349 64 -95 189 -243 231 -271 17
-12 0 12 -40 53 -136 143 -218 259 -288 412 -23 51 -50 108 -59 127 -8 19 -16
32 -16 28z"/>
<path d="M1559 970 c-15 -9 -16 -48 -12 -402 6 -445 2 -425 82 -413 24 4 50 9
57 12 12 4 14 74 14 397 0 235 -4 397 -10 406 -6 10 -10 -124 -10 -387 l0
-403 -55 0 -55 0 0 208 c0 115 -3 291 -7 390 l-6 182 56 0 c32 0 57 3 57 8 0
11 -92 12 -111 2z"/>
<path d="M810 800 c56 -70 177 -179 260 -232 136 -89 201 -118 318 -142 l62
-14 0 70 c0 62 -2 68 -17 59 -18 -10 -119 22 -203 64 -111 57 -262 174 -274
213 -5 14 -20 17 -90 17 l-84 0 28 -35z m172 -47 c32 -32 76 -67 98 -79 22
-12 54 -32 72 -46 43 -32 155 -84 212 -99 54 -13 67 -26 55 -56 -9 -25 -24
-28 -62 -14 -14 6 -43 12 -66 16 -46 7 -181 80 -181 98 0 7 -16 22 -35 35 -19
12 -35 18 -35 14 0 -5 10 -14 23 -20 12 -6 17 -11 11 -11 -15 -1 -130 87 -173
133 -40 41 -36 49 5 11 15 -14 30 -22 33 -19 3 3 -11 21 -31 39 -45 38 -47 50
-11 53 20 2 40 -11 85 -55z"/>
<path d="M940 702 c0 -5 20 -23 45 -41 55 -39 59 -31 8 15 -38 34 -53 41 -53
26z"/>
<path d="M836 718 c9 -13 35 -36 58 -52 l41 -28 -50 51 c-50 52 -80 69 -49 29z"/>
<path d="M790 679 c0 -5 -5 -7 -12 -3 -7 4 -8 3 -4 -5 4 -6 11 -9 15 -7 4 3
25 -12 45 -33 27 -28 34 -40 24 -45 -7 -3 -4 -4 7 -3 11 1 20 -4 21 -10 1 -7
2 -17 3 -22 0 -5 13 -17 29 -26 l27 -18 -24 27 c-14 14 -20 26 -14 26 14 0 54
-45 47 -53 -4 -3 0 -13 9 -21 20 -21 138 -79 157 -79 8 1 47 -12 87 -28 39
-16 80 -29 90 -30 13 -1 11 -3 -7 -10 -19 -7 -16 -7 13 -3 29 4 37 2 31 -7 -4
-7 -3 -10 3 -6 6 4 31 4 56 1 l45 -6 10 -72 10 -71 -2 75 -1 74 -35 9 c-218
52 -284 81 -458 204 -29 20 -78 63 -108 95 -58 60 -64 65 -64 47z m236 -204
c32 -19 61 -35 66 -35 4 0 8 -5 8 -11 0 -11 -78 29 -120 61 -39 30 -18 23 46
-15z"/>
<path d="M770 351 c65 -59 286 -192 317 -191 5 0 -33 22 -82 48 -50 26 -115
65 -145 87 -30 21 -71 50 -90 63 l-35 24 35 -31z"/>
<path d="M1150 133 c48 -21 171 -51 233 -58 29 -3 3 5 -58 19 -60 13 -130 31
-154 40 -54 20 -68 19 -21 -1z"/>
</g>
</svg>
